<svg id="Columbia_Engineering" xmlns="http://www.w3.org/2000/svg" viewBox="0 0 5591.5 718.1"><path id="Columbia_Engineering_2_" d="M1708.4 157.6c0-1.9-1.5-2.6-5.2-2.6-9.8 0-25.5.7-27.8.7-1.9 0-21-.7-35.6-.7-3.8 0-5.3.7-5.3 2.6 0 1.1 1.1 2.6 2.6 2.6 3 0 8.6.4 11.3.7 10.9 1.5 12.7 7.5 13.1 17.6.4 10.1.7 19.1.7 68.6v40.1c0 32.6-3.4 58.9-18.7 77.3-11.2 13.5-30.8 22.5-51 22.5-18.7 0-33-2.6-49.1-17.3-14.3-12.8-24.4-31.9-24.4-78v-44.6c0-49.5 0-58.5.8-68.6.7-10.5 2.6-16.1 11.3-17.6 4.1-.7 6-.7 8.3-.7 1.5 0 3-1.5 3-2.6 0-1.9-1.9-2.6-5.6-2.6-9.8 0-30.4.7-33.4.7s-22.9-.7-37.9-.7c-3.8 0-5.3.7-5.3 2.6 0 1.1 1.5 2.6 2.6 2.6 3 0 8.6.4 11.3.7 10.9 1.5 12.7 7.5 13.5 17.6.8 10.1.8 19.1.8 68.6V294c0 46.5 12.7 68.6 28.9 83.6 23.3 21.7 57.8 22.5 68.6 22.5 19.5 0 45-2.6 69-23.3 26.3-22.5 30.8-61.1 30.8-95.6v-34.1c0-49.5-.4-58.5.4-68.6.8-10.5 2.6-15.8 11.6-17.6 4.1-.7 6-.7 8.2-.7 1.4 0 2.5-1.5 2.5-2.6zm3530.9 217.9l.7-186.8c0-19.1.8-25.5 11.6-27.8 3.7-.7 6.4-.7 7.9-.7 2.3 0 3.8-1.9 3.8-3 0-1.9-2.6-2.3-6-2.3-13.5 0-24.4.7-28.1.7-3.8 0-19.5-.7-34.5-.7-3.8 0-6.4.4-6.4 2.3 0 1.1.4 3 2.6 3 2.6 0 10.1.4 16.1 1.5 10.1 1.9 12 9 12.4 29.6l3.4 159.8c-10.1-10.5-45.4-48.4-78-82.1-51-52.5-99-103.5-104.2-108.8-3.4-3.4-9-9.7-12.7-9.7-2.6 0-4.5 3.4-4.5 16.1v182.6c0 28.9-1.1 37.5-9.4 39.7-4.9 1.5-10.9 1.9-13.5 1.9-1.5 0-2.6 1.1-2.6 2.6 0 2.2 1.9 2.6 5.2 2.6 15 0 28.9-1.1 31.9-1.1s16.1 1.1 34.9 1.1c3.8 0 6-.7 6-2.6 0-1.5-1.1-2.6-2.6-2.6-3 0-10.5-.4-16.5-1.9-9-2.2-12-10.1-12.8-36.4l-3.8-150.4c10.1 11.3 47.3 50.3 85.5 90.4 34.9 36.4 82.5 83.3 85.9 86.2 18.4 16.9 21.7 19.5 25.1 19.5 2.2.2 2.6-1.7 2.6-22.7zm-289.1 15.4c-3 0-10.1-.7-15-1.5-9.8-1.5-10.9-7.5-12-16.9-1.5-13.1-1.5-38.2-1.5-69v-56.3c0-49.5 0-58.5.4-68.6.8-11.3 2.6-15.8 11.6-17.6 3.7-.7 6-.7 8.3-.7 1.1 0 2.6-1.5 2.6-2.6 0-1.9-1.5-2.6-5.3-2.6-10.1 0-31.5.7-33 .7-1.9 0-22.5-.7-33.4-.7-3.8 0-5.2.7-5.2 2.6 0 1.1 1.1 2.6 2.6 2.6 2.3 0 6.4.4 10.1 1.1 7.1 1.5 9.8 6.4 10.5 17.3.8 10.1.8 19.1.8 68.6v56.3c0 30.8-.4 55.9-1.9 69-1.1 9.4-2.3 15.4-8.6 16.9-3 .8-7.1 1.5-10.1 1.5-1.9 0-2.6 1.5-2.6 2.6 0 1.9 1.9 2.6 5.3 2.6 10.1 0 30.7-1.1 32.6-1.1 1.5 0 22.9 1.1 41.2 1.1 3.7 0 5.2-1.1 5.2-2.6 0-1.2-.8-2.7-2.6-2.7zM1321.1 395c9.7 0 21 .4 36 .7 15.4.7 33.8 1.1 57.4 1.1 17.6 0 18.8-1.1 21-8.6 2.6-9.4 4.9-28.5 4.9-31.9 0-3.4-.8-4.9-2.2-4.9-1.9 0-3 1.9-3.4 4.1-1.1 6.4-3.8 13.1-7.9 18-7.9 9.4-22.5 9.7-39.8 9.7-25.9 0-38.6-2.2-43.9-7.5-6-5.6-6.8-24.8-6.8-71.6v-57c0-49.5 0-58.5.4-68.6.8-11.3 2.6-16.1 12.4-18 3.8-.4 8.6-.8 10.9-.8 1.1 0 2.6-1.1 2.6-2.2 0-1.9-1.9-2.6-5.3-2.6-10.1 0-34.9.7-36.4.7-1.9 0-22.5-.7-37.5-.7-3.7 0-5.3.7-5.3 2.6 0 1.1 1.5 2.6 2.6 2.6 3 0 8.6.4 11.2.7 10.9 1.5 12.8 6.8 13.5 17.6.7 10.1.7 19.1.7 68.6v56.3c0 30.8 0 55.9-1.9 69-1.5 9.4-2.3 15.4-8.6 16.9-3 .8-7.1 1.5-10.1 1.5-1.9 0-2.6 1.5-2.6 2.6 0 1.9 1.9 2.6 5.3 2.6 5.2 0 12.4-.4 19.1-.7 6.5-.2 12.2-.2 13.7-.2zm2077.2 3.4c2.2 0 2.6-1.9 2.6-22.9l.8-186.8c0-19.1.8-25.5 11.6-27.8 3.8-.7 6.4-.7 7.9-.7 2.2 0 3.7-1.9 3.7-3 0-1.9-2.6-2.3-6-2.3-13.5 0-24.4.7-28.1.7-3.8 0-19.5-.7-34.5-.7-3.8 0-6.4.4-6.4 2.3 0 1.1.4 3 2.6 3 2.6 0 10.1.4 16.1 1.5 10.1 1.9 12 9 12.4 29.6l3.4 159.8c-10.1-10.5-45.4-48.4-78-82.1-51-52.5-99-103.5-104.3-108.8-3.4-3.4-9-9.7-12.7-9.7-2.6 0-4.5 3.4-4.5 16.1v182.6c0 28.9-1.1 37.5-9.4 39.7-4.9 1.5-10.9 1.9-13.5 1.9-1.5 0-2.6 1.1-2.6 2.6 0 2.2 1.9 2.6 5.2 2.6 15 0 28.9-1.1 31.9-1.1s16.1 1.1 34.9 1.1c3.7 0 6-.7 6-2.6 0-1.5-1.1-2.6-2.6-2.6-3 0-10.5-.4-16.5-1.9-9-2.2-12-10.1-12.8-36.4l-3.7-150.4c10.1 11.3 47.2 50.3 85.5 90.4 34.9 36.4 82.5 83.3 85.9 86.2 18.3 17 21.7 19.7 25.1 19.7zm-298.1-10.9c1.9-7.9 4.9-33.4 4.9-36.4 0-2.6 0-5.6-2.3-5.6-1.9 0-2.6 1.5-3.4 5.6-2.6 15.4-7.1 22.9-16.9 27-9.7 4.1-26.2 4.1-36 4.1-36.7 0-42.4-4.9-43.5-30.8-.4-7.9 0-51.4 0-64.1v-33c0-1.5.8-2.6 2.6-2.6 6.4 0 43.5.7 53.6 1.9 14.6 1.5 18 7.9 19.5 13.1 1.5 4.9 1.5 8.6 1.5 12.4 0 1.9.8 3.4 2.6 3.4 2.6 0 2.6-4.1 2.6-7.1 0-2.6.8-16.5 1.5-24 1.1-12.4 3-18.8 3-21 0-2.2-.8-3-1.9-3-1.5 0-3 1.9-5.6 4.9-3.4 3.8-8.6 4.5-17.6 5.3-8.6.7-54.8.7-59.6.7-1.9 0-2.2-1.1-2.2-3.7V131c0-2.6.8-3.8 2.2-3.8 4.1 0 45 .4 51.4 1.1 20.2 2.3 24 6.8 26.6 12.7 1.9 4.5 2.3 10.9 2.3 13.5 0 3 .8 4.9 3 4.9 1.5 0 2.3-2.2 2.6-4.1.7-4.5 1.5-21 1.9-24.7 1.1-10.5 3-15 3-17.6 0-1.9-.4-3.4-1.5-3.4-1.9 0-3.4 1.5-5.2 1.9-3 .7-9 1.5-16.1 1.9-8.6.4-83.3.4-85.9.4l-15.3-.8c-8.3-.4-18.4-.4-27-.4-4.1 0-6 .8-6 3 0 1.5 1.5 2.2 3 2.2 3.4 0 9.8.4 12.8 1.1 12.4 2.6 15.4 8.6 16.1 21.4.7 12 .7 22.5.7 81v66c0 36 0 65.6-1.9 81.4-1.5 10.9-3.4 19.1-10.9 20.6-3.4.8-7.9 1.5-11.3 1.5-2.2 0-3 1.1-3 2.3 0 2.3 1.9 3 6 3 5.6 0 14.2-.7 21.7-.7 7.9-.4 14.3-.4 15-.4 5.6 0 14.6.4 29.2 1.1 14.6.4 35.2 1.1 63.4 1.1 14.8 0 17.8 0 20.4-9.7zM2795 467.6h7.2V38.2h-7.2v429.4zM4553.9 353c-1.9 0-2.6 1.1-3.4 4.9-1.9 12.8-6.4 18.4-15 22.1-8.6 3.4-24.4 3.4-33 3.4-32.6 0-38.6-4.1-39.4-25.5-.4-6.4 0-43.5 0-54.4v-26.6c0-1.1.4-2.2 2.2-2.2 5.6 0 40.9.4 49.9 1.5 12.7 1.5 15.7 5.3 16.9 9.8 1.5 4.1 1.5 7.5 1.5 10.5 0 1.9.8 3 2.2 3 2.3 0 3-3.4 3-6 0-2.3.8-14.3 1.5-20.6.7-10.5 2.6-15.8 2.6-17.6 0-1.9-.8-2.6-1.9-2.6-1.1 0-2.6 1.9-4.9 4.1-3.4 3.4-8.2 3.8-16.1 4.5-7.5.8-51 .8-55.1.8-1.9 0-1.9-1.1-1.9-3.4v-86.6c0-2.2.4-3.4 1.9-3.4 3.8 0 42 .4 47.6 1.1 18 2.2 21.4 4.5 23.6 9.8 1.5 3.7 1.9 9 1.9 11.2 0 2.6.7 4.1 2.6 4.1 1.5 0 2.6-1.9 3-3.4.7-3.7 1.5-18 1.9-21 .8-9 2.6-12.8 2.6-15 0-1.5-.4-3-1.5-3-1.5 0-3 1.1-4.5 1.5-2.6.4-8.6 1.5-15 1.9-7.5.4-76.5 0-78.8 0-1.9 0-23.2-.7-38.2-.7-3.8 0-5.2.7-5.2 2.6 0 1.1 1.5 2.6 2.6 2.6 3 0 8.6.4 11.3.7 10.9 1.5 12.7 6.8 13.5 17.6.8 10.1.8 19.1.8 68.6v56.3c0 30.8 0 55.9-1.9 69-1.5 9.4-2.2 15.8-8.6 16.9-3 .4-7.1 1.5-10.1 1.5-1.9 0-2.6 1.5-2.6 2.6 0 1.9 1.9 2.6 5.2 2.6 5.3 0 12.7-.4 19.1-.7 7.1-.4 13.5-.4 14.2-.4 4.9 0 13.5 0 27.4.7 13.5.4 32.6 1.1 57.4 1.1 12.7 0 16.1 0 18.4-8.3 1.9-6.8 4.5-28.5 4.5-30.8 0-2.2-.4-4.8-2.2-4.8zm-2498.6 43.1c3.8 0 6.8-1.1 6.8-3 0-1.5-1.1-2.3-2.6-2.3-3.4 0-12 0-21.4-3-13.5-4.5-15.7-21.7-16.9-33L1998.7 159c-.8-6-2.6-8.6-4.9-8.6-2.2 0-3.8 2.2-5.3 5.2l-96 197.6-99.8-198c-1.9-3.8-4.5-4.9-6.7-4.9-1.9 0-3.4 2.2-3.7 5.6l-24 208.1c-1.5 12-1.9 23.6-12.8 25.5-4.9.8-7.1 1.1-9.8 1.1-1.9 0-3.4 1.1-3.4 2.3 0 2.3 2.3 3 5.6 3 9 0 24.8-1.1 27.8-1.1 2.6 0 18.4 1.1 30.7 1.1 3.7 0 6-.7 6-3 0-1.1-1.5-2.3-2.6-2.3-2.3 0-7.1-.4-12.8-1.9-4.9-1.1-7.9-4.1-7.9-9 0-5.3 0-11.3.4-16.1l12.8-144h1.5c5.6 13.1 32.2 66.8 42 87 8.3 17.3 30 58.1 38.6 73.9 6.4 11.6 8.2 14.6 11.3 14.6 3 0 4.9-3 11.6-16.9l79.5-162.7h.8l15.8 161.2c.8 6 .4 10.9-1.5 11.3-1.5.4-2.2 1.5-2.2 2.6 0 1.5 1.5 2.6 9.4 3.4 11.9 1.4 48.7 2.1 56.2 2.1zm3283.7-30c36.7 31.1 83.6 34.1 108.7 34.1 19.1 0 49.1-3.4 70.1-14.2 4.1-2.3 4.5-2.6 4.5-17.3v-35.6c0-13.5 0-22.9.4-33 .8-11.3 3.4-16.1 12.4-17.6 3.8-.7 6-.7 8.2-.7 1.1 0 2.6-1.5 2.6-2.6 0-2.3-1.5-2.6-5.2-2.6-10.1 0-30.7.8-32.2.8-1.9 0-24-.8-39-.8-3.7 0-5.2.4-5.2 2.6 0 1.1 1.5 2.6 2.6 2.6 3 0 8.6.4 11.2.7 13.5 2.6 14.3 6.4 14.3 32.3v55.1c0 6-2.6 7.5-6.7 9.8-8.6 4.9-24 6-35.6 6-30.4 0-58.1-9-84.4-33.4-11.6-10.9-34.9-43.1-34.9-88.1 0-37.1 13.5-65.6 32.6-80.3 25.1-19.1 49.1-20.6 69-20.6 42.8 0 67.9 12.7 76.1 24.8 5.3 7.5 7.1 16.9 7.5 21 0 3 .4 4.9 2.3 4.9 2.3 0 3.7-1.5 3.7-6.7 0-31.9 1.9-40.5 1.9-45 0-1.5-.8-3-4.1-3-8.2 0-19.9-1.9-26.6-3.4-6.4-1.5-29.6-5.2-50.6-5.2-25.1 0-58.1 2.2-87.8 20.2-29.3 17.6-55.1 53.6-55.1 104.6-.1 39.6 19 73.7 39.3 90.6zM2318 160.2c2.3 0 6.4.4 10.1 1.1 7.1 1.5 9.7 6.4 10.5 17.3.7 10.1.7 19.1.7 68.6v56.3c0 30.8-.4 55.9-1.9 69-1.1 9.4-2.2 15.4-8.6 16.9-3 .8-7.1 1.5-10.1 1.5-1.9 0-2.6 1.5-2.6 2.6 0 1.9 1.9 2.6 5.3 2.6 10.1 0 30.7-1.1 32.6-1.1 1.5 0 22.9 1.1 41.2 1.1 3.8 0 5.3-1.1 5.3-2.6 0-1.1-.8-2.6-2.6-2.6-3 0-10.1-.7-15-1.5-9.8-1.5-10.9-7.5-12-16.9-1.5-13.1-1.5-38.2-1.5-69v-56.3c0-49.5 0-58.5.4-68.6.8-11.3 2.6-15.8 11.6-17.6 3.8-.7 6-.7 8.2-.7 1.1 0 2.6-1.5 2.6-2.6 0-1.9-1.5-2.6-5.2-2.6-10.1 0-31.5.7-33 .7-1.9 0-22.5-.7-33.4-.7-3.8 0-5.3.7-5.3 2.6.1 1 1.2 2.5 2.7 2.5zm357.8 233.3c0-1.9-2.2-2.6-4.1-2.6-3.4 0-8.2-.4-13.1-1.9-7.1-2.2-16.1-6.4-28.1-34.9-20.2-48.4-73.1-180-79.1-193.5-3.4-7.1-4.5-11.6-7.9-11.6-2.3 0-3.8 1.9-7.9 12.4L2458 360.9c-6.4 16.1-12.7 27.4-27.8 29.3-2.6.4-7.5.7-9.7.7-1.5 0-3 1.1-3 2.6 0 1.9 2.3 2.6 6.4 2.6 13.5 0 30-1.1 33.4-1.1 3.8 0 21.8 1.1 29.6 1.1 3 0 4.9-.7 4.9-2.6 0-1.5-.8-2.6-3.4-2.6h-3c-5.6 0-11.3-2.2-11.3-8.6 0-5.6 1.9-13.5 4.9-21.4l18.8-51c.7-1.9 1.9-2.6 3.4-2.6h76.1c1.9 0 2.3.4 3 1.9l29.6 73.1c2.2 5.2-1.1 7.9-3 8.6-1.5.8-2.2.8-2.2 2.3 0 1.9 5.2 1.9 11.6 2.3 22.9.7 47.3.7 52.1.7 3.6-.1 7.4-.8 7.4-2.7zm-103.5-99.4h-66.8c-1.1 0-1.5-.7-1.1-2.3l30.8-87.4c1.9-4.9 3.7-4.9 5.6 0l32.6 87.4c.4 1.6.4 2.3-1.1 2.3zm928.3 72c36.8 31.1 83.6 34.1 108.8 34.1 19.1 0 49.1-3.4 70.1-14.2 4.1-2.3 4.5-2.6 4.5-17.3v-35.6c0-13.5 0-22.9.4-33 .8-11.3 3.4-16.1 12.4-17.6 3.8-.7 6-.7 8.2-.7 1.1 0 2.6-1.5 2.6-2.6 0-2.3-1.5-2.6-5.2-2.6-10.1 0-30.8.8-32.3.8-1.9 0-24-.8-39-.8-3.7 0-5.2.4-5.2 2.6 0 1.1 1.5 2.6 2.6 2.6 3 0 8.6.4 11.3.7 13.5 2.6 14.3 6.4 14.3 32.3v55.1c0 6-2.6 7.5-6.8 9.8-8.6 4.9-24 6-35.6 6-30.4 0-58.1-9-84.4-33.4-11.6-10.9-34.9-43.1-34.9-88.1 0-37.1 13.5-65.6 32.6-80.3 25.1-19.1 49.1-20.6 69-20.6 42.7 0 67.9 12.7 76.1 24.8 5.3 7.5 7.1 16.9 7.5 21 0 3 .4 4.9 2.2 4.9 2.3 0 3.8-1.5 3.8-6.7 0-31.9 1.9-40.5 1.9-45 0-1.5-.7-3-4.1-3-8.3 0-19.9-1.9-26.6-3.4-6.4-1.5-29.6-5.2-50.6-5.2-25.1 0-58.1 2.2-87.8 20.2-29.2 17.6-55.1 53.6-55.1 104.6-.1 39.6 19.1 73.7 39.3 90.6zm-1232-40.1c0-36-33-58.9-58.1-66.4 16.9-15 33.4-30.7 33.4-55.9 0-16.9-14.3-48.8-69.4-48.8-15.4 0-30.7.7-38.6.7-1.9 0-23.2-.7-38.2-.7-3.8 0-5.2.7-5.2 2.6 0 1.1 1.5 1.9 2.6 1.9 3 0 8.6.4 11.3.8 10.9 1.5 12.8 7.5 13.5 18.4.7 10.1.7 19.1.7 68.6v56.3c0 30.8 0 55.9-1.9 69-1.5 9.4-2.2 16.5-8.6 17.6-3 .4-7.1 1.5-10.1 1.5-1.9 0-2.6.8-2.6 1.9 0 1.9 1.9 2.6 5.2 2.6 5.3 0 13.1-.4 19.9-.7 6.8 0 12.8-.4 13.5-.4 1.5 0 10.9.4 21.4.7 10.5.7 22.5 1.1 28.5 1.1 56.1.1 82.7-35.2 82.7-70.8zm-119.7-156c0-1.9 1.1-2.6 4.1-3.4 5.3-1.1 13.1-1.5 16.9-1.5 33 0 46.5 27 46.5 51.4 0 15.4-5.6 26.3-12.7 34.1-6.8 7.5-13.9 8.2-32.3 8.2-12.4 0-18.4-1.1-20.3-1.5-1.5-.4-2.2-1.1-2.2-3.4V170zm40.6 215.6c-6 0-19.9-.4-28.9-4.5-10.1-4.9-10.1-8.6-11.2-24-.4-4.9-.4-43.1-.4-67.9v-17.6c0-1.5.8-2.2 1.9-2.2 5.3 0 21.8 0 25.9.8 7.9 1.5 18.4 1.1 29.6 8.2 25.9 16.5 31.5 43.9 31.5 58.1-.1 40.9-26.7 49.1-48.4 49.1zm1775.3 5.3c-3 0-10.5-.4-16.5-1.9-9-2.2-12-10.1-12.7-36.4l-3.8-150.4c10.1 11.3 47.2 50.3 85.5 90.4 34.9 36.4 82.5 83.3 85.9 86.2 18.4 16.9 21.8 19.5 25.1 19.5 2.3 0 2.6-1.9 2.6-22.9l.8-186.8c0-19.1.7-25.5 11.6-27.8 3.8-.7 6.4-.7 7.9-.7 2.2 0 3.7-1.9 3.7-3 0-1.9-2.6-2.3-6-2.3-13.5 0-24.4.7-28.1.7-3.8 0-19.5-.7-34.5-.7-3.7 0-6.4.4-6.4 2.3 0 1.1.4 3 2.6 3 2.6 0 10.1.4 16.1 1.5 10.1 1.9 12 9 12.4 29.6l3.4 159.8c-10.1-10.5-45.4-48.4-78-82.1-51-52.5-99-103.5-104.3-108.8-3.4-3.4-9-9.7-12.8-9.7-2.6 0-4.5 3.4-4.5 16.1v182.6c0 28.9-1.1 37.5-9.4 39.7-4.9 1.5-10.9 1.9-13.5 1.9-1.5 0-2.6 1.1-2.6 2.6 0 2.2 1.9 2.6 5.3 2.6 15 0 28.9-1.1 31.9-1.1s16.1 1.1 34.9 1.1c3.7 0 6-.7 6-2.6 0-1.3-1.1-2.4-2.6-2.4zm-125.6 5.2c3.8 0 5.3-1.1 5.3-2.6 0-1.1-.8-2.6-2.6-2.6-3 0-10.1-.7-15-1.5-9.8-1.5-10.9-7.5-12-16.9-1.5-13.1-1.5-38.2-1.5-69v-56.3c0-49.5 0-58.5.4-68.6.8-11.3 2.6-15.8 11.6-17.6 3.8-.7 6-.7 8.3-.7 1.1 0 2.6-1.5 2.6-2.6 0-1.9-1.5-2.6-5.2-2.6-10.1 0-31.5.7-33 .7-1.9 0-22.5-.7-33.4-.7-3.7 0-5.2.7-5.2 2.6 0 1.1 1.1 2.6 2.6 2.6 2.2 0 6.4.4 10.1 1.1 7.1 1.5 9.7 6.4 10.5 17.3.8 10.1.8 19.1.8 68.6v56.3c0 30.8-.4 55.9-1.9 69-1.1 9.4-2.3 15.4-8.6 16.9-3 .8-7.1 1.5-10.1 1.5-1.9 0-2.6 1.5-2.6 2.6 0 1.9 1.9 2.6 5.2 2.6 10.1 0 30.8-1.1 32.6-1.1 1.3-.1 22.7 1 41.1 1zm-2601.7-126c0-74.3-56.2-119.6-130.5-119.6-91.1 0-130.9 73.1-130.9 124.5 0 57.4 38.6 125.3 129 125.3 79.5-.1 132.4-58.9 132.4-130.2zm-227.3-3.7c0-69.4 39.8-103.9 94.9-103.9 52.1 0 98.6 40.1 98.6 116.6 0 92.3-59.6 108-89.3 108-59.5 0-104.2-46.5-104.2-120.7zM4345 388.6c1.9-6.8 4.5-28.5 4.5-30.8 0-2.2-.4-4.9-2.2-4.9s-2.6 1.1-3.4 4.9c-1.9 12.8-6.4 18.4-15 22.1-8.6 3.4-24.4 3.4-33 3.4-32.6 0-38.6-4.1-39.4-25.5-.4-6.4 0-43.5 0-54.4v-26.6c0-1.1.4-2.2 2.2-2.2 5.6 0 40.9.4 49.9 1.5 12.7 1.5 15.7 5.3 16.9 9.8 1.5 4.1 1.5 7.5 1.5 10.5 0 1.9.7 3 2.3 3 2.3 0 3-3.4 3-6 0-2.3.8-14.3 1.5-20.6.8-10.5 2.6-15.8 2.6-17.6 0-1.9-.8-2.6-1.9-2.6s-2.6 1.9-4.9 4.1c-3.4 3.4-8.2 3.8-16.1 4.5-7.5.8-51 .8-55.1.8-1.9 0-1.9-1.1-1.9-3.4V172c0-2.2.4-3.4 1.9-3.4 3.8 0 42 .4 47.6 1.1 18 2.2 21.4 4.5 23.6 9.8 1.5 3.7 1.9 9 1.9 11.2 0 2.6.7 4.1 2.6 4.1 1.5 0 2.6-1.9 3-3.4.7-3.7 1.5-18 1.9-21 .8-9 2.6-12.8 2.6-15 0-1.5-.4-3-1.5-3-1.5 0-3 1.1-4.5 1.5-2.6.4-8.6 1.5-15 1.9-7.5.4-76.5 0-78.8 0-1.9 0-23.2-.7-38.2-.7-3.8 0-5.2.7-5.2 2.6 0 1.1 1.5 2.6 2.6 2.6 3 0 8.6.4 11.3.7 10.9 1.5 12.8 6.8 13.5 17.6.7 10.1.7 19.1.7 68.6v56.3c0 30.8 0 55.9-1.9 69-1.5 9.4-2.3 15.8-8.6 16.9-3 .4-7.1 1.5-10.1 1.5-1.9 0-2.6 1.5-2.6 2.6 0 1.9 1.9 2.6 5.3 2.6 5.2 0 12.7-.4 19.1-.7 7.1-.4 13.5-.4 14.2-.4 4.9 0 13.5 0 27.4.7 13.5.4 32.6 1.1 57.4 1.1 12.7.1 16.1.1 18.3-8.2zm-3416.8-6.7c3.7-12.8 8.2-45.4 8.2-48 0-3-.7-5.6-2.6-5.6-2.2 0-3 1.5-3.7 5.6-1.1 6.7-6 23.2-13.9 31.5-15 15.4-37.1 18.8-65.3 18.8-80.3 0-135.4-65.6-135.4-137.3 0-38.3 6.4-71.6 33.7-97.9 13.1-12.8 36.4-27.4 86.3-27.4 33 0 61.9 10.1 75 21.4 9.8 8.2 15.7 23.6 15.7 38.3 0 5.3.4 7.9 3 7.9 2.3 0 3-2.2 3.4-7.9.4-5.6.4-26.2 1.1-38.6.8-13.5 1.9-18 1.9-21 0-2.2-.8-3.7-4.9-4.1-12-.8-24-3-38.3-5.6-18.4-3.4-39.4-4.5-54.4-4.5-57.8 0-91.9 17.6-114.4 40.1-33.4 33.4-42 77.3-42 102.4 0 35.6 9 78.4 45.4 111 29.6 26.6 67.5 40.5 123.8 40.5 24 0 52.5-2.6 67.5-8.6 6.9-3.2 7.6-3.9 9.9-11zm3824.4-39c18.8 24 30.8 39.4 45 46.9 8.3 4.5 16.5 6.4 35.3 6.4h20.6c6 0 7.9-.7 7.9-2.6 0-1.1-1.1-2.6-3-2.6s-5.2 0-11.6-1.1c-8.3-1.1-19.1-4.1-36.7-22.1-19.1-19.9-42-48.7-69-82.5 30.8-26.2 40.5-49.1 40.5-72.7 0-22.1-14.6-37.5-22.9-43.5-17.3-12-40.5-13.9-61.5-13.9-10.1 0-37.9.7-41.2.7-1.9 0-24-.7-39-.7-3.7 0-5.2.7-5.2 2.6 0 1.1 1.5 2.6 2.6 2.6 3 0 8.6.4 11.2.7 10.9 1.5 12.8 6.8 13.5 17.6.7 10.1.7 19.1.7 68.6v56.3c0 30.8 0 55.9-1.9 69-1.5 9.4-2.3 15.4-8.6 16.9-3 .8-7.1 1.5-10.1 1.5-1.9 0-2.6 1.5-2.6 2.6 0 1.9 1.9 2.6 5.3 2.6 10.1 0 32.2-1.1 32.6-1.1 1.5 0 22.5 1.1 40.5 1.1 3.7 0 5.2-1.1 5.2-2.6 0-1.1-.4-2.6-2.6-2.6-3 0-10.1-.7-14.6-1.5-10.1-1.5-12-7.5-13.1-16.9-1.5-13.1-1.5-37.9-1.5-68.6v-7.5c0-1.9.8-2.6 2.3-2.6l42 .8c2.2 0 3 .4 4.5 1.9 6.9 8.4 21.5 29 35.4 46.3zm-45.8-59.7c-14.6 0-31.5-2.3-36.4-4.9-1.5-1.1-2.3-2.2-2.3-4.1V171.8c0-1.9 1.1-3 2.6-3.7 3.4-.8 13.9-1.9 23.6-1.9 35.3 0 57 22.9 57 62.6 0 24.4-8.6 41.3-19.9 48.8-7.7 5.2-16.7 5.6-24.6 5.6zm-971 262.8c5.3 0 10.3-3.2 10.3-10.1 0-5.5-3.8-10.1-9.7-10.1-5.7 0-10.7 4-10.7 10.5 0 5.3 4 9.7 10.1 9.7zm-1823.9 44.1h22.4c1.8-1.2 2.2-6.5-.2-8.3h-22c-3.4 0-3.6-.2-3.6-3.8v-8.9c-.8-1.4-3.2-1.4-4.2-1-2 4-5.7 9.3-8.3 11.7-2 1.8-6.9 4.4-12.7 6.1-.8 1.2-.6 3.4.6 4.2h5.5c4 0 4.2.4 4.2 5.7v45.3c0 11.9 3.6 21.4 20.6 21.4 10.1 0 17.2-5 20.8-9.1.4-1.2-.4-3.4-2-3.4-.6 0-3.2 2.2-5 2.8-1.6.6-3.4 1-5.3 1-13.1 0-14.5-10.5-14.5-22v-37c.1-4.1.3-4.7 3.7-4.7zm70.9 65.4l-4.2-.6c-7.1-1-7.5-3-7.5-17.2V602c0-8.1.4-17.6.8-24.6-.2-.8-1-1.2-2-1.2-4.6 3-15.8 8.1-20.4 9.7-1 .6-1 2.8-.2 3.6l1.8 1.2c5.3 3.6 5.3 4.6 5.3 12.3v34.6c0 14.3-.2 16.2-7.5 17.2l-4.2.6c-1.4 1-1 4.3.4 4.9 5.5-.4 11.5-.6 18.6-.6 6.9 0 12.7.2 18.6.6 1.5-.5 1.9-3.8.5-4.8zm-106.3-4.2c-.6 0-1.6.8-2.6 1.4-1.2.6-3 1.2-4.9 1.2-7.7 0-9.5-8.1-9.1-17.2l1.2-34.4c.6-14.8-6.3-23.2-20.6-23.2-14.5 0-36.8 14.1-36.8 24.3 0 1.8 1 2.8 2.8 2.8 3 0 8.3-1.4 11.3-3.8 1.6-1.2 1.8-3.6 2-6.7.4-6.1 7.1-8.9 12.7-8.9 12.3 0 14.6 9.9 14.5 17.2l-.2 9.1c-.2 3-.4 4.7-3.4 5.7l-23.6 8.5c-12.7 4.6-16.4 9.1-16.4 16.8 0 5.5 2.4 10.5 6.1 13.9 3.4 3 8.1 4.6 13.9 4.6 5.5 0 9.9-2.6 14.3-5 4-2.2 6.3-4 7.7-4 1.2 0 2.4 1.6 3.2 2.8 3.4 4.4 8.1 6.1 12.9 6.1 9.7 0 16.6-7.7 16.6-8.7-.2-1.3-.8-2.5-1.6-2.5zm-30.9-11.9c0 4.2-.2 6.9-2.6 9.3-2 2-8.1 4.9-12.1 4.9-10.1 0-12.5-8.5-12.5-11.9 0-7.7 5.7-10.7 17.4-14.6 3.6-1.2 6.9-2 8.1-2s2 .4 2 2.6l-.3 11.7zm-935.4 16.1l-5.3-.6c-7.1-.8-7.5-3-7.5-17.2v-33.1c0-13.9-6.7-25.5-25.5-25.5-10.1 0-19.6 4.7-26.7 10.3-.6-.4-.8-2-.8-3.8V544c0-8.7.4-18.6.6-24.6-.4-.8-1.2-1.2-2-1.2-7.1 3.8-16.4 6.7-21.4 8.3-1 .6-1 3.4 0 4l2 1.2c5.9 3.6 6.1 4.8 6.1 16.4v89.5c0 14.3-.2 16.4-7.5 17.2l-5 .6c-1.4 1-1 4.3.4 4.9 6.3-.4 12.3-.6 19.4-.6 6.9 0 12.7.2 18.6.6 1.4-.6 1.8-4.2.4-4.9l-4.2-.6c-7.1-1-7.5-3-7.5-17.2v-33.3c0-6.9.6-7.9 4.2-10.9s8.7-5.3 15.4-5.3c12.7 0 18.8 8.5 18.8 21.2v28.3c0 14.3-.2 16-7.5 17.2l-4 .6c-1.4 1-1 4.3.4 4.9 5.3-.4 11.3-.6 18.4-.6 6.9 0 12.7.2 19.8.6 1.4-.5 1.8-3.8.4-4.8zm1062.5-116.6c0-5.5-3.8-10.1-9.7-10.1-5.7 0-10.7 4-10.7 10.5 0 5.3 4 9.7 10.1 9.7 5.3 0 10.3-3.2 10.3-10.1zm-1166-15.3c-3 5.1-4.8 5.5-15.4 5.5h-80.2c-9.1 0-15.6.2-16.8-6.1-.6-.6-3.2-.4-3.8 0-1.4 7.9-4.4 20.6-7.5 29.5.8 1.6 3.6 2.6 5.1 1.4 2.2-4.9 4.2-9.3 8.9-13.7 5-4.6 15.8-5 24.3-5h10.9c5.9 0 5.9.2 5.9 6.3V630c0 20.8-1 23.8-12.3 24.7l-7.1.6c-1.6 1-1.2 4.3 0 4.9 12.7-.4 19.6-.6 27.5-.6 7.9 0 14.6.2 25.9.6 1.2-.6 1.6-4.2.4-4.9l-6.3-.6c-11.5-1.2-11.9-4-11.9-24.7v-88c0-6.5-.2-6.7 5.7-6.7h14.1c10.9 0 18.4 1.6 23 5 3 2.2 4.4 9.5 4.9 14.5 1 1.2 4.4 1.2 5.1-.4-.6-5.9.8-22 3-30.1-.2-.9-2.4-1.1-3.4-.7zm427.8 128.9c-5.5 0-6.1-5.9-6.1-21.6v-33.3c0-7.3.2-13.5.6-17.2-.2-.8-.8-1.2-1.8-1.4-4.4 2-15.2 3.4-23.2 3.6-1.6.8-1.6 3.6-.2 4.3l2.6 1c5.9 2.4 7.3 2.8 7.3 15.6V636c0 6.1-1.4 9.1-4 11.5-4.4 3.8-10.7 5.9-16 5.9-15 0-18.4-9.1-18.4-22.8v-33.1c0-9.7.2-13.9.6-17.2-.2-.8-.8-1.2-2-1.4-4.4 1.6-12.1 3.4-21.2 3.6-1.4.6-1.6 3.4-.4 4.3l2.4 1c5.9 2.6 5.9 4.4 5.9 16.8v33.1c0 16 6.5 24.8 24 24.8 11.7 0 21.4-6.5 27.3-10.3 1.2 0 1.8 1 1.8 2.8v8.1c.4.8 1.4 1.4 2.4 1.4 6.7-3.8 18.2-5.7 25.9-7.3 1.6-.8 1.4-4.7.2-5.7-2.8.6-5.3 1-7.7 1zM103.6 563.7H499v-33.6H103.6v33.6zm1339.6 15.4c-23.4 0-42.2 17.8-42.2 42.8 0 24.7 17.8 40.8 40.6 40.8 24.7 0 41.8-17.8 41.8-42.6-.1-24.4-18.1-41-40.2-41zm.4 77.6c-17.4 0-25.5-19.4-25.5-37.4 0-21.8 9.7-34.2 22.8-34.2 18.8 0 25.5 21.4 25.5 38.2-.1 15.1-5.4 33.4-22.8 33.4zm-331.4-127.5h-36.4c-7.9 0-14.7-.2-23-.6-1.2.6-1.6 4.2-.4 4.9l3.2.4c11.5 1.4 11.9 4.2 11.9 24.9v71.3c0 20.8-.4 23.4-11.9 24.7l-5 .6c-1.2 1.2-.8 4.3.4 4.9 9.3-.4 16-.6 24.7-.6 7.9 0 14.6.2 26.3.6 1.2-.6 1.6-4.2.4-4.9l-6.7-.6c-11.7-1-12.1-4-12.1-24.7v-27.5c0-5.1.6-5.3 6.5-5.3h13.5c7.5 0 12.5.2 15.2 1 3.8 1.2 5.5 4 6.3 7.5l2 7.7c1.4 1.2 4.4 1.2 5.2 0 0-4.6-.8-12.1-.8-19.2 0-7.3.8-15.2.8-20-.8-1.2-4.2-1.2-5.2 0l-1.8 7.9c-1.2 5.1-2.8 6.1-5 6.9-2.4.8-8.7 1.2-16.8 1.2H1090c-5.9 0-6.5 0-6.5-5.3v-41.8c0-7.5 0-7.9 5.9-7.9h12.1c8.3 0 14.8.2 19.2 1.2 9.9 2.8 12.3 9.9 13.9 18.8 1.4 1.2 4.2.6 4.7-.6-.4-7.5-.6-17-.6-26.1-2.4.6-13.9.6-26.5.6zM123.4 208.7c11.4-5.8 22.4-11.8 31.6-16.6 21.9-10.9 57.7-29.1 72.8-42.6 4.5-4 10.4-11.2 2.8-26-.4-.8-4.9-9.5-9.4-18.4-4.5-8.9-8.8-17.6-9.3-18.4-7.5-14.9-16.8-14.3-22.6-13.1-19.8 4.2-55.6 22.3-77.4 33.6-9.3 4.5-20.7 9.8-32.1 15.6l-35 71.8 78.6 14.1zM494.2 245c-55.9-4.5-104.1 25.4-158.3 35-4.3.8-10.2-8.5-15.4-13.7 25.1-19 21.7-56.1-7.4-72.1-2-2.3-1.3-23.7-.1-24.6 2.4-2 20.9 1.6 23.6-.7 2.6-2.3 2.1-24.6.4-26.7-1.7-2.1-22.6.2-23.8-1.3-1.2-1.4.6-21.5-1.4-23-1.4-1.1-7.2-1.3-10.4-1.2-3.2 0-9 .1-10.4 1.2-2 1.6-.2 21.6-1.4 23-1.2 1.4-22.1-.8-23.8 1.3-1.7 2.1-2.2 24.4.4 26.7 2.6 2.3 21.2-1.3 23.6.7 1.2 1 1.9 22.3-.1 24.6-29.1 16-32.5 53.2-7.4 72.1-5.3 5.3-11.1 14.5-15.4 13.7-54.2-9.6-102.4-39.5-158.3-35-31.3 2.5-56.8 24.5-62.2 56.2-9.8 56.9 31.1 100.7 51 149.1 6.3 15.3 11.8 35.8 10.8 53.4h386.7c-1-17.6 4.5-38.2 10.8-53.4 19.9-48.3 60.8-92.1 51-149.1-5.7-31.7-31.2-53.7-62.5-56.2zm-216 182.3c-5 28.6-20.9 46.7-34.1 46.8-8.7 0-15.6-3.2-21.9-8.8-8.7-7.6-15.8-20.2-13.5-27.6 1.9-2.5 25.4 1.1 27-1.2 1.7-2.3-2.9-20.6-5.5-22.9-2.7-2.4-23.8.8-26.6-1.5-2.8-2.3-5.5-24.9-8.4-26.3 0 0-22.4-3.3-24-.1-1.6 3.2 7.6 22.1 6 25.3-1.6 3.2-31.2-2.8-31.7.5s1.7 20 4.5 22.4c2.8 2.5 30.5 2.6 30.5 2.6 5.7 4.4 7.3 13.3 7.3 22.4.1 11.6-9 17.6-23.3 13.5-26.8-7.5-60-65.6-79.7-105.8-14.5-29.6-23.2-78 14.8-92.5 23.2-8.8 47.5-3.8 72.4 3.6 26.1 7.7 60.6 18.2 80.9 30.9 5 3.1-5.9.6 12.1 40.6 8.3 18.5 16.7 58.1 13.2 78.1zM518 366.6c-19.7 40.2-52.9 98.4-79.7 105.8-14.4 4-23.4-2-23.3-13.5 0-9.1 1.5-18 7.3-22.4 0 0 27.7-.2 30.5-2.6 2.8-2.4 5.1-19.1 4.5-22.4-.5-3.3-30.2 2.7-31.7-.5-1.6-3.2 7.6-22.1 6-25.3-1.6-3.2-24 .1-24 .1-2.9 1.4-5.5 24-8.3 26.3-2.8 2.3-24-.8-26.7 1.5-2.7 2.4-7.2 20.6-5.5 22.9 1.7 2.3 25.1-1.2 27.1 1.2 2.3 7.4-4.8 19.9-13.5 27.6-6.3 5.5-13.3 8.8-21.9 8.8-13.2-.1-29.1-18.3-34.1-46.8-3.5-20 4.9-59.6 13.3-78.1 18-40 7.1-37.5 12.1-40.6 20.3-12.6 54.8-23.1 80.9-30.9 24.9-7.4 49.2-12.4 72.4-3.6 37.8 14.5 29.1 62.9 14.6 92.5zm467.7 275.2c-6.1 7.7-11.7 9.7-18.2 9.7-21.2 0-32.9-17-32.9-37 0-5 .2-5.3 5.3-5.3h36.6c8.3 0 11.1-.2 11.7-1.4.4-.8.8-2.4.8-5.1 0-11.9-11.1-23.6-28.1-23.6-23.8 0-39.8 20.4-39.8 44.7 0 8.7 2.4 18 8.3 25.7 5.7 7.5 15.8 13.1 28.7 13.1 10.3 0 24.5-5 31.1-18.4-.2-1.8-1.6-3-3.5-2.4zm-27-56.8c11.5 0 15.2 6.9 15.2 12.5 0 2.6-.6 3.4-1.2 3.8-1.6 1.2-5.9 2-20.6 2H938c-1.4 0-1.4-.6-1.4-1 .4-6.6 10.5-17.3 22.1-17.3zm622.2 67.5c-5.5 0-6.1-5.9-6.1-21.6v-33.3c0-7.3.2-13.5.6-17.2-.2-.8-.8-1.2-1.8-1.4-4.4 2-15.2 3.4-23.2 3.6-1.6.8-1.6 3.6-.2 4.3l2.6 1c5.9 2.4 7.3 2.8 7.3 15.6V636c0 6.1-1.4 9.1-4 11.5-4.4 3.8-10.7 5.9-16 5.9-15 0-18.4-9.1-18.4-22.8v-33.1c0-9.7.2-13.9.6-17.2-.2-.8-.8-1.2-2-1.4-4.4 1.6-12.1 3.4-21.2 3.6-1.4.6-1.6 3.4-.4 4.3l2.4 1c5.9 2.6 5.9 4.4 5.9 16.8v33.1c0 16 6.5 24.8 24 24.8 11.7 0 21.4-6.5 27.3-10.3 1.2 0 1.8 1 1.8 2.8v8.1c.4.8 1.4 1.4 2.4 1.4 6.7-3.8 18.2-5.7 25.9-7.3 1.6-.8 1.4-4.7.2-5.7-2.7.6-5.3 1-7.7 1zM95.7 103.9c3.1-1.5 6.2-2.9 9-4.3 9.3-4.8 21-10.8 33-16.5-2-3.1-4-6.1-5.1-7.4-2.3-2.6-6.4-6.2-14.1-2-.4.2-4.9 2.7-9.5 5.1-4.6 2.4-9.2 4.8-9.6 5-7.7 4.1-7.1 9.4-6.2 12.8.4 1.5 1.4 4.3 2.5 7.3zm1594.9 551.6l-4.4-.6c-7.1-1-7.5-3-7.5-17.2v-34c0-13.3-6.7-24.5-23.2-24.5-10.1 0-19.4 5-27.7 10.1-1.4 0-2.2-1-2.2-2.2 0-1.8 0-4.7.4-9.3-.4-1-1.4-1.4-2.2-1.4-4 3-15.2 8.1-19.8 9.7-1 .6-1 2.8-.2 3.6l1.8 1.2c5.3 3.6 5.3 4.6 5.3 12.3v34.6c0 14.3-.2 16.2-7.5 17.2l-4.2.6c-1.4 1-1 4.3.4 4.9 5.5-.4 11.5-.6 18.6-.6 6.9 0 12.7.2 18 .6 1.4-.6 1.8-4 .4-4.9l-3.6-.6c-7.1-1.2-7.5-3-7.5-17.2v-30.3c0-5.7.4-8.5 3-11.9 2.8-3.8 9.3-6.9 16.8-6.9 13.5 0 18.6 8.3 18.6 19.6v29.5c0 14.3-.2 16-7.5 17.2l-3.8.6c-1.4 1-1 4.3.4 4.9 5.3-.4 11.3-.6 18.4-.6 6.9 0 12.7.2 18.6.6 1.6-.7 2-4 .6-5zm-1311.7-512c15.4 15.3 42.1 33.3 61 43.3 18.7 10.5 41.3 20.8 69 27.7 5.1 1.3 13.3 1.9 20.5-11.3.8-1.5 17.7-32.3 18.5-33.8 7.2-13.2 2.3-19.8-1.5-23.4-20.7-19.5-41.6-33-60.6-43.1-18.7-10.5-48.2-23.3-69.4-28-5.1-1.3-13.3-1.9-20.5 11.3-.8 1.5-17.6 32.3-18.5 33.8-7.3 13.3-2.4 19.9 1.5 23.5zm77.8 63.5c-7.7-3.5-14.9-7.3-21.6-11.1-6.7-3.6-14.3-8.1-22.1-13.1l-42.7 77.8c23.3-7 46.1-15.7 69.4-21.3l17-32.3zm-299 440.5c-2.6 5-5.1 11.3-5.4 14.7-.4 3.5-1 9.1 8.4 14.1.5.3 6 3.2 11.7 6.2 5.6 3 11.1 6 11.6 6.3 9.4 5.1 13.7 1.6 16.3-.8 2.4-2.2 5.9-6.9 8.7-12l54-102.1h-64.8l-40.5 73.6zm1636 4.4c-3 1-6.3 2-8.5 2-5.5 0-5.7-7.3-5.7-23V544c0-8.7.4-18.6.6-24.6-.4-.8-1.2-1.2-2-1.2-7.1 3.8-16.4 6.7-21.4 8.3-1 .6-1 3.4 0 4l2 1.2c5.9 3.6 6.1 4.8 6.1 16.4V578c0 1.6-.2 2.8-1.2 2.8-2.2-.8-6.5-1.8-13.3-1.8-26.9 0-47.9 17.8-47.9 45.5 0 20.8 14.7 38 36.6 38 9.5 0 16.2-3.2 24.9-9.1h.8c.4.8.4 3.2.4 6.1v3.4c0 1 1 1.6 2.2 1.6 5.5-2.2 17.8-5.1 26.1-6.3 1.9-1 1.7-5.9.3-6.3zm-28.9-11.7c0 3.2-.2 6.1-1.4 7.3-3.2 3.2-9.9 5.5-15.2 5.5-19.4 0-29.5-17-29.5-35 0-17.2 9.3-32.9 27.3-32.9 7.7 0 13.7 4.2 16.6 8.3 1.4 2 2.2 3.8 2.2 7.7v39.1zm-400-111h-36.4c-7.9 0-14.6-.2-23-.6-1.2.6-1.6 4.2-.4 4.9l3.2.4c11.5 1.4 11.9 4.2 11.9 24.9v71.3c0 20.8-.4 23.4-11.9 24.7l-5 .6c-1.2 1.2-.8 4.3.4 4.9 9.3-.4 16-.6 24.7-.6 7.9 0 14.6.2 26.3.6 1.2-.6 1.6-4.2.4-4.9l-6.7-.6c-11.7-1-12.1-4-12.1-24.7v-27.5c0-5.1.6-5.3 6.5-5.3h13.5c7.5 0 12.5.2 15.2 1 3.8 1.2 5.5 4 6.3 7.5l2 7.7c1.4 1.2 4.4 1.2 5.1 0 0-4.6-.8-12.1-.8-19.2 0-7.3.8-15.2.8-20-.8-1.2-4.2-1.2-5.1 0l-1.8 7.9c-1.2 5.1-2.8 6.1-5 6.9-2.4.8-8.7 1.2-16.8 1.2h-13.5c-5.9 0-6.5 0-6.5-5.3v-41.8c0-7.5 0-7.9 5.9-7.9h12.1c8.3 0 14.8.2 19.2 1.2 9.9 2.8 12.3 9.9 13.9 18.8 1.4 1.2 4.2.6 4.7-.6-.4-7.5-.6-17-.6-26.1-2.4.6-13.9.6-26.5.6zM509.9 105c1.3-3.2 2.5-6.4 3-8 .9-3.4 1.6-8.8-6-12.9-.4-.2-4.9-2.7-9.5-5.2-4.6-2.6-9-5.1-9.5-5.3-7.6-4.3-11.8-.8-14.1 1.8-1.2 1.3-3.3 4.3-5.3 7.4 8.2 3.7 15.9 7.6 22.3 11.2 6.2 3.3 12.6 7 19.1 11zm-353 97.3c-2.5 1.3-5.1 2.7-7.8 4.2l17.8 33.7c23.3 5.9 46.1 14.7 69.6 21.6l-43.1-78.4c-12.9 7.1-26.1 13.8-36.5 18.9zm291.5 445.2L408 573.9h-64.8L397.1 676c2.8 5.1 6.4 9.8 8.7 12 2.6 2.4 6.9 5.9 16.3.8.5-.3 6-3.3 11.6-6.3s11.2-5.9 11.7-6.2c9.4-5 8.8-10.5 8.4-14.1-.3-3.4-2.7-9.7-5.4-14.7zM2037 579.1c-23.4 0-42.2 17.8-42.2 42.8 0 24.7 17.8 40.8 40.6 40.8 24.7 0 41.8-17.8 41.8-42.6 0-24.4-18-41-40.2-41zm.4 77.6c-17.4 0-25.5-19.4-25.5-37.4 0-21.8 9.7-34.2 22.8-34.2 18.8 0 25.5 21.4 25.5 38.2 0 15.1-5.4 33.4-22.8 33.4zm2481.3-80.6c-12.7 0-25.1 8.1-27.7 9.3-1.4 0-1.8-1.2-1.8-2.6 0-2.6.4-5.5.8-9.1-.4-1-1.2-1.4-2.4-1.4-5.2 3.8-14.5 8.5-19.6 10.7-1 .6-1 2.8-.2 3.6l1.8 1.2c5.3 3.6 5.3 4.6 5.3 12.3v85.1c0 14.2-.2 16.2-7.5 17.2l-4.2.6c-1.4 1-1 4.4.4 5 5.5-.4 11.5-.6 18.6-.6 6.9 0 12.7.2 22.2.6 1.4-.6 1.8-4 .4-5l-7.7-1c-7.1-1-7.5-2.8-7.5-16.8v-20.8c0-4.2 1-5.2 2.8-5.5 1.8.4 7.3.8 10.9.8 28.1 0 48.3-19.8 48.3-47.3 0-20.1-12.9-36.3-32.9-36.3zm-8.9 77c-4.2 0-10.3-1.4-14.3-4.4-4-3.2-5.9-5.5-5.9-11.9v-34c0-6.5.6-9.5 2.4-11.7 2.2-2.4 8.3-5.5 16.8-5.5 17.8 0 26.7 16 26.7 31.9.1 20.5-9.4 35.6-25.7 35.6zm109.3-77c-12.7 0-25.1 8.1-27.7 9.3-1.4 0-1.8-1.2-1.8-2.6 0-2.6.4-5.5.8-9.1-.4-1-1.2-1.4-2.4-1.4-5.2 3.8-14.5 8.5-19.6 10.7-1 .6-1 2.8-.2 3.6l1.8 1.2c5.3 3.6 5.3 4.6 5.3 12.3v85.1c0 14.2-.2 16.2-7.5 17.2l-4.2.6c-1.4 1-1 4.4.4 5 5.5-.4 11.5-.6 18.6-.6 6.9 0 12.7.2 22.2.6 1.4-.6 1.8-4 .4-5l-7.7-1c-7.1-1-7.5-2.8-7.5-16.8v-20.8c0-4.2 1-5.2 2.8-5.5 1.8.4 7.3.8 10.9.8 28.1 0 48.3-19.8 48.3-47.3 0-20.1-12.9-36.3-32.9-36.3zm-8.9 77c-4.2 0-10.3-1.4-14.3-4.4-4-3.2-5.9-5.5-5.9-11.9v-34c0-6.5.6-9.5 2.4-11.7 2.2-2.4 8.3-5.5 16.8-5.5 17.8 0 26.7 16 26.7 31.9 0 20.5-9.5 35.6-25.7 35.6zm-656.6-69.9h-16c-4.4 0-5.7-.4-12.1-3.2-4.6-2-11.5-4-19-4-17.6 0-32.3 12.9-32.3 29.9 0 12.7 8.1 20.4 14.8 23.9 0 1-1 2.6-2 3.8-3.4 3.6-7.1 6.9-10.5 9.1-2.2 1.6-3 2.4-3 3.4 0 6.9 6.7 13.7 14.5 15.6 1.8 1.2.2 3-1.6 4.7-4.6 4.6-10.1 9.7-13.5 13.3-1.4 1.6-2.2 4.2-2.2 7.3 0 9.9 8.5 23 32.9 23 25.7 0 49.3-15.8 49.3-37.4 0-19.8-16.6-21.8-27.7-21.8-8.7 0-16.8.6-23.6.6-9.3 0-13.9-3.8-13.9-8.3 0-5.7 6.3-9.5 8.7-10.9 2.4.2 5.1.6 8.7.6 25.1 0 33.3-17.8 33.3-31.5 0-3.4 0-6.7-.4-10.1h14.3c3.1-.3 3.5-7 1.3-8zm-58.4 82.2c2.8-1.8 10.7-2.2 17-2.2h6.7c14.3 0 22.6 5.1 22.6 17.2 0 11.3-11.7 21.2-29.3 21.2-18 0-26.5-8.9-26.5-19.6 0-7.5 4.7-13.7 9.5-16.6zm13.1-38.2c-9.5 0-18-9.1-18-23.2 0-13.5 7.1-22.2 16.6-22.2 12.1 0 17.6 11.3 17.6 24.7 0 12.1-5.6 20.7-16.2 20.7zm814.7-90.9c0 5.3 4 9.7 10.1 9.7 5.3 0 10.3-3.2 10.3-10.1 0-5.5-3.8-10.1-9.7-10.1-5.7 0-10.7 4-10.7 10.5zm30.5 116.2l-4.2-.6c-7.1-1-7.5-3-7.5-17.2V599c0-8.1.4-17.6.8-24.5-.2-.8-1-1.2-2-1.2-4.6 3-15.8 8.1-20.4 9.7-1 .6-1 2.8-.2 3.6l1.8 1.2c5.3 3.6 5.3 4.6 5.3 12.3v34.6c0 14.2-.2 16.2-7.5 17.2l-4.2.6c-1.4 1-1 4.4.4 5 5.5-.4 11.5-.6 18.6-.6 6.9 0 12.7.2 18.6.6 1.5-.6 1.9-4 .5-5zm76.6-13.7c-6.1 7.7-11.7 9.7-18.2 9.7-21.2 0-32.9-17-32.9-37 0-4.9.2-5.3 5.3-5.3h36.6c8.3 0 11.1-.2 11.7-1.4.4-.8.8-2.4.8-5.1 0-11.9-11.1-23.6-28.1-23.6-23.8 0-39.8 20.4-39.8 44.7 0 8.7 2.4 18 8.3 25.7 5.7 7.5 15.8 13.1 28.7 13.1 10.3 0 24.5-4.9 31.1-18.4-.1-1.8-1.5-3-3.5-2.4zm-26.9-56.8c11.5 0 15.2 6.9 15.2 12.5 0 2.6-.6 3.4-1.2 3.8-1.6 1.2-5.9 2-20.6 2h-14.1c-1.4 0-1.4-.6-1.4-1 .3-6.6 10.4-17.3 22.1-17.3zM4182 652.5l-4.4-.6c-7.1-1-7.5-3-7.5-17.2v-34.1c0-13.3-6.7-24.5-23.2-24.5-10.1 0-19.4 5-27.7 10.1-1.4 0-2.2-1-2.2-2.2 0-1.8 0-4.8.4-9.3-.4-1-1.4-1.4-2.2-1.4-4 3-15.2 8.1-19.8 9.7-1 .6-1 2.8-.2 3.6l1.8 1.2c5.3 3.6 5.3 4.6 5.3 12.3v34.6c0 14.2-.2 16.2-7.5 17.2l-4.2.6c-1.4 1-1 4.4.4 5 5.5-.4 11.5-.6 18.6-.6 6.9 0 12.7.2 18 .6 1.4-.6 1.8-4 .4-5l-3.6-.6c-7.1-1.2-7.5-3-7.5-17.2v-30.3c0-5.7.4-8.5 3-11.9 2.8-3.8 9.3-6.9 16.8-6.9 13.5 0 18.6 8.3 18.6 19.6v29.5c0 14.2-.2 16-7.5 17.2l-3.8.6c-1.4 1-1 4.4.4 5 5.3-.4 11.3-.6 18.4-.6 6.9 0 12.7.2 18.6.6 1.6-.6 2-4 .6-5zm281.5 0l-5.3-.6c-8.5-1-11.1-4-16.8-21l-27.1-79.6c-3-8.7-6.1-17.8-8.7-26.5-.4-1.4-1.8-1.8-3-1.8-2.2 2.6-5.5 6.1-10.3 7.5.6 3.2-.6 6.9-3.4 14.1l-20.2 53.4c-8.3 22.2-13.9 35-17.4 44.1-2.8 7.1-7.1 9.3-11.9 9.7l-6.5.6c-1.2 1-.8 4.2.4 5 5.3-.2 12.5-.6 19-.6 9.3.2 15.4.2 20.6.6 1.8-.8 1.8-4 .4-5l-6.5-.6c-4.8-.4-5.7-1.6-5.7-4 0-2.2 1.4-7.5 4.4-16.4l6.9-20.8c1.4-4.2 2.6-4.7 7.5-4.7h29.9c5.9 0 6.7.6 8.1 4.9l8.7 26.9c1.6 4.7 2.6 8.3 2.6 10.5 0 2-2.8 3.2-6.9 3.6l-5.7.6c-1.4 1-1.2 4.2.4 5 5.7-.2 13.3-.6 22.8-.6 8.9 0 15.8.2 23.9.6.8-.7 1.2-3.9-.2-4.9zm-56.4-54.4h-24.3c-5.5 0-5.7-.2-4.2-4.7l12.5-34.5c2.2-5.9 4.2-10.7 4.8-11.7h.4c1.2 2.4 3 7.7 4.6 12.5l10.7 32.3c1.6 5.3 1.2 6.1-4.5 6.1zm-323.9 50.2c-.6 0-1.6.8-2.6 1.4-1.2.6-3 1.2-4.9 1.2-7.7 0-9.5-8.1-9.1-17.2l1.2-34.4c.6-14.8-6.3-23.2-20.6-23.2-14.5 0-36.8 14.1-36.8 24.4 0 1.8 1 2.8 2.8 2.8 3 0 8.3-1.4 11.3-3.8 1.6-1.2 1.8-3.6 2-6.7.4-6.1 7.1-8.9 12.7-8.9 12.3 0 14.7 9.9 14.5 17.2l-.2 9.1c-.2 3-.4 4.7-3.4 5.7l-23.6 8.5c-12.7 4.6-16.4 9.1-16.4 16.8 0 5.5 2.4 10.5 6.1 13.9 3.4 3 8.1 4.6 13.9 4.6 5.5 0 9.9-2.6 14.3-4.9 4-2.2 6.3-4 7.7-4 1.2 0 2.4 1.6 3.2 2.8 3.4 4.3 8.1 6.1 12.9 6.1 9.7 0 16.6-7.7 16.6-8.7-.2-1.5-.8-2.7-1.6-2.7zm-30.8-11.8c0 4.2-.2 6.9-2.6 9.3-2 2-8.1 5-12.1 5-10.1 0-12.5-8.5-12.5-11.9 0-7.7 5.7-10.7 17.4-14.7 3.6-1.2 6.9-2 8.1-2 1.2 0 2 .4 2 2.6l-.3 11.7zm232.8 12.4c-3 1-6.3 2-8.5 2-5.5 0-5.7-7.3-5.7-23V541c0-8.7.4-18.6.6-24.5-.4-.8-1.2-1.2-2-1.2-7.1 3.8-16.4 6.7-21.4 8.3-1 .6-1 3.4 0 4l2 1.2c5.9 3.6 6.1 4.7 6.1 16.4v29.9c0 1.6-.2 2.8-1.2 2.8-2.2-.8-6.5-1.8-13.3-1.8-26.9 0-47.9 17.8-47.9 45.5 0 20.8 14.6 38 36.6 38 9.5 0 16.2-3.2 24.9-9.1h.8c.4.8.4 3.2.4 6.1v3.4c0 1 1 1.6 2.2 1.6 5.5-2.2 17.8-5.1 26.1-6.3 1.8-1 1.6-6 .3-6.4zm-28.9-11.6c0 3.2-.2 6.1-1.4 7.3-3.2 3.2-9.9 5.5-15.2 5.5-19.4 0-29.5-17-29.5-35 0-17.2 9.3-32.9 27.3-32.9 7.7 0 13.7 4.2 16.6 8.3 1.4 2 2.2 3.8 2.2 7.7v39.1zm446.9 15.2l-4.7-.6c-7.1-1-7.5-3-7.5-17.2V541c0-8.7.4-18.6.6-24.5-.4-.8-1.2-1.2-2-1.2-7.1 3.8-16.4 6.7-21.4 8.3-1 .6-1 3.4 0 4l2 1.2c5.9 3.6 6.1 4.7 6.1 16.4v89.5c0 14.2-.2 16.2-7.5 17.2l-4.6.6c-1.4 1-1 4.4.4 5 5.9-.4 11.9-.6 19-.6 6.9 0 12.7.2 19.2.6 1.4-.6 1.8-4 .4-5zm582.4-13.7c-6.1 7.7-11.7 9.7-18.2 9.7-21.2 0-32.9-17-32.9-37 0-4.9.2-5.3 5.3-5.3h36.6c8.3 0 11.1-.2 11.7-1.4.4-.8.8-2.4.8-5.1 0-11.9-11.1-23.6-28.1-23.6-23.8 0-39.8 20.4-39.8 44.7 0 8.7 2.4 18 8.3 25.7 5.7 7.5 15.8 13.1 28.7 13.1 10.3 0 24.5-4.9 31.1-18.4-.1-1.8-1.5-3-3.5-2.4zm-26.9-56.8c11.5 0 15.2 6.9 15.2 12.5 0 2.6-.6 3.4-1.2 3.8-1.6 1.2-5.9 2-20.6 2H5238c-1.4 0-1.4-.6-1.4-1 .3-6.6 10.4-17.3 22.1-17.3zm132.8 70.5l-4.4-.6c-7.1-1-7.5-3-7.5-17.2v-34.1c0-13.3-6.7-24.5-23.2-24.5-10.1 0-19.4 5-27.7 10.1-1.4 0-2.2-1-2.2-2.2 0-1.8 0-4.8.4-9.3-.4-1-1.4-1.4-2.2-1.4-4 3-15.2 8.1-19.8 9.7-1 .6-1 2.8-.2 3.6l1.8 1.2c5.3 3.6 5.3 4.6 5.3 12.3v34.6c0 14.2-.2 16.2-7.5 17.2l-4.2.6c-1.4 1-1 4.4.4 5 5.5-.4 11.5-.6 18.6-.6 6.9 0 12.7.2 18 .6 1.4-.6 1.8-4 .4-5l-3.6-.6c-7.1-1.2-7.5-3-7.5-17.2v-30.3c0-5.7.4-8.5 3-11.9 2.8-3.8 9.3-6.9 16.8-6.9 13.5 0 18.6 8.3 18.6 19.6v29.5c0 14.2-.2 16-7.5 17.2l-3.8.6c-1.4 1-1 4.4.4 5 5.3-.4 11.3-.6 18.4-.6 6.9 0 12.7.2 18.6.6 1.6-.6 2-4 .6-5zm-456.3-3.6c-3 1-6.3 2-8.5 2-5.5 0-5.7-7.3-5.7-23V541c0-8.7.4-18.6.6-24.5-.4-.8-1.2-1.2-2-1.2-7.1 3.8-16.4 6.7-21.4 8.3-1 .6-1 3.4 0 4l2 1.2c5.9 3.6 6.1 4.7 6.1 16.4v29.9c0 1.6-.2 2.8-1.2 2.8-2.2-.8-6.5-1.8-13.3-1.8-26.9 0-47.9 17.8-47.9 45.5 0 20.8 14.6 38 36.6 38 9.5 0 16.2-3.2 24.9-9.1h.8c.4.8.4 3.2.4 6.1v3.4c0 1 1 1.6 2.2 1.6 5.5-2.2 17.8-5.1 26.1-6.3 1.9-1 1.7-6 .3-6.4zm-28.9-11.6c0 3.2-.2 6.1-1.4 7.3-3.2 3.2-9.9 5.5-15.2 5.5-19.4 0-29.5-17-29.5-35 0-17.2 9.3-32.9 27.3-32.9 7.7 0 13.7 4.2 16.6 8.3 1.4 2 2.2 3.8 2.2 7.7v39.1zm640.8 1.5c-6.1 7.7-11.7 9.7-18.2 9.7-21.2 0-32.9-17-32.9-37 0-4.9.2-5.3 5.3-5.3h36.6c8.3 0 11.1-.2 11.7-1.4.4-.8.8-2.4.8-5.1 0-11.9-11.1-23.6-28.1-23.6-23.8 0-39.8 20.4-39.8 44.7 0 8.7 2.4 18 8.3 25.7 5.7 7.5 15.8 13.1 28.7 13.1 10.3 0 24.5-4.9 31.1-18.4-.1-1.8-1.5-3-3.5-2.4zm-26.9-56.8c11.5 0 15.2 6.9 15.2 12.5 0 2.6-.6 3.4-1.2 3.8-1.6 1.2-5.9 2-20.6 2h-14.1c-1.4 0-1.4-.6-1.4-1 .3-6.6 10.4-17.3 22.1-17.3zm-48.5 54.7c-4.6 6.7-10.5 11.9-22 11.9-21.2 0-31.9-18.4-31.9-33.9 0-21 13.5-31.9 27.3-31.9 8.1 0 15.4 5.1 19.8 10.5.8 1 1.8 1.4 2.8 1.4 2.4 0 4.3-3.8 4.3-7.3 0-3.4-1.4-6.5-3-7.9-5.3-2.4-13.1-3.4-17.6-3.4-32.9 0-47.9 22.8-47.9 44.1 0 12.9 4.6 22.6 11.5 29.3 6.9 6.7 16.6 10.1 27.1 10.1 11.5 0 26.3-5.5 33.1-20.2-.2-1.8-1.9-3.1-3.5-2.7zm-422.6-51.3l-15.8-9.9c-7.3-4.8-16.8-12.9-16.8-24.4 0-9.1 4.2-22 23.6-22 19 0 24.3 12.9 26.9 22.4 1 1.2 4.2.6 5-.6 0-8.3-1.8-19.4-3.6-24.1-1.6 0-4.3-.6-6.9-1.2-5.1-1.6-12.3-2.6-18.4-2.6-25.7 0-40.4 15.2-40.4 34 0 16.2 11.5 27.5 21.4 34.1l18.8 12.3c14.5 9.3 16.2 19 16.2 27.7 0 11.9-8.1 22.8-24.7 22.8-23 0-31.1-19.4-34.1-29.5-.8-1.2-3.8-.8-4.8.6.4 9.3 3 23.4 5.3 27.7 3.8 2.2 14.2 7.3 30.9 7.3 25.7 0 42.2-14.9 42.2-36.6-.1-18.8-12.4-30.3-24.8-38zm110.2 51.3c-4.6 6.7-10.5 11.9-22 11.9-21.2 0-31.9-18.4-31.9-33.9 0-21 13.5-31.9 27.3-31.9 8.1 0 15.4 5.1 19.8 10.5.8 1 1.8 1.4 2.8 1.4 2.4 0 4.4-3.8 4.4-7.3 0-3.4-1.4-6.5-3-7.9-5.3-2.4-13.1-3.4-17.6-3.4-32.9 0-47.9 22.8-47.9 44.1 0 12.9 4.6 22.6 11.5 29.3 6.9 6.7 16.6 10.1 27.1 10.1 11.5 0 26.3-5.5 33.1-20.2-.2-1.8-2-3.1-3.6-2.7zm49.7 15.8l-4.2-.6c-7.1-1-7.5-3-7.5-17.2V599c0-8.1.4-17.6.8-24.5-.2-.8-1-1.2-2-1.2-4.6 3-15.8 8.1-20.4 9.7-1 .6-1 2.8-.2 3.6l1.8 1.2c5.3 3.6 5.3 4.6 5.3 12.3v34.6c0 14.2-.2 16.2-7.5 17.2l-4.2.6c-1.4 1-1 4.4.4 5 5.5-.4 11.5-.6 18.6-.6 6.9 0 12.7.2 18.6.6 1.5-.6 1.9-4 .5-5zm-10.1-116.6c0-5.5-3.8-10.1-9.7-10.1-5.7 0-10.7 4-10.7 10.5 0 5.3 4 9.7 10.1 9.7 5.4 0 10.3-3.2 10.3-10.1zm-2538.1 43.2c-23.4 0-42.2 17.8-42.2 42.8 0 24.7 17.8 40.8 40.6 40.8 24.7 0 41.8-17.8 41.8-42.6-.1-24.4-18.1-41-40.2-41zm.4 77.6c-17.4 0-25.5-19.4-25.5-37.4 0-21.8 9.7-34.2 22.8-34.2 18.8 0 25.5 21.4 25.5 38.2-.1 15.1-5.4 33.4-22.8 33.4zm91-1.2l-4.8-.6c-7.1-1-7.5-3-7.5-17.2V544c0-8.7.4-18.6.6-24.6-.4-.8-1.2-1.2-2-1.2-7.1 3.8-16.4 6.7-21.4 8.3-1 .6-1 3.4 0 4l2 1.2c5.9 3.6 6.1 4.8 6.1 16.4v89.5c0 14.3-.2 16.2-7.5 17.2l-4.6.6c-1.4 1-1 4.3.4 4.9 5.9-.4 11.9-.6 19-.6 6.9 0 12.7.2 19.2.6 1.5-.5 1.9-3.8.5-4.8zm103.1-76.4c-23.4 0-42.2 17.8-42.2 42.8 0 24.7 17.8 40.8 40.6 40.8 24.7 0 41.8-17.8 41.8-42.6 0-24.4-18-41-40.2-41zm.4 77.6c-17.4 0-25.5-19.4-25.5-37.4 0-21.8 9.7-34.2 22.8-34.2 18.8 0 25.5 21.4 25.5 38.2 0 15.1-5.3 33.4-22.8 33.4zm-672.6-1.2l-4.4-.6c-7.1-1-7.5-3-7.5-17.2v-34c0-13.3-6.7-24.5-23.2-24.5-10.1 0-19.4 5-27.7 10.1-1.4 0-2.2-1-2.2-2.2 0-1.8 0-4.7.4-9.3-.4-1-1.4-1.4-2.2-1.4-4 3-15.2 8.1-19.8 9.7-1 .6-1 2.8-.2 3.6l1.8 1.2c5.3 3.6 5.3 4.6 5.3 12.3v34.6c0 14.3-.2 16.2-7.5 17.2l-4.2.6c-1.4 1-1 4.3.4 4.9 5.5-.4 11.5-.6 18.6-.6 6.9 0 12.7.2 18 .6 1.4-.6 1.8-4 .4-4.9l-3.6-.6c-7.1-1.2-7.5-3-7.5-17.2v-30.3c0-5.7.4-8.5 3-11.9 2.8-3.8 9.3-6.9 16.8-6.9 13.5 0 18.6 8.3 18.6 19.6v29.5c0 14.3-.2 16-7.5 17.2l-3.8.6c-1.4 1-1 4.3.4 4.9 5.3-.4 11.3-.6 18.4-.6 6.9 0 12.7.2 18.6.6 1.6-.7 2-4 .6-5zM2963 518.3c-19.6 0-30.7 13.9-35.6 25.1-4.8 11.1-6.1 23.4-6.1 34.8 0 2-1.4 3.2-3 4l-8.5 4.2c-.8 1.2-.6 3 .6 3.8h6.9c4 0 4 .4 4 5.7v41.8c0 14.3-.2 16.2-7.5 17.2l-4.6.6c-1.4 1-1 4.3.4 4.9 5.9-.4 11.9-.6 19-.6 6.9 0 12.7.2 21.6.6 1.4-.6 1.8-4 .4-4.9l-7.1-.6c-7.1-.6-7.5-3-7.5-17.2v-41.8c0-5.3 0-5.7 3.4-5.7h21.2c2.2-.8 3.6-6.3 1.4-8.3h-22.6c-3.4 0-3.4-.2-3.4-5.5v-5.7c0-9.9.8-24.3 4.4-33.4 3-7.1 7.9-10.9 14.1-10.9 6.5 0 12.1 4.3 15.8 8.7 1.4 1.6 2.6 2.4 4.8 2.4 3.8 0 7.5-3.2 7.5-7.1-.2-7.4-9.1-12.1-19.6-12.1zm-663.7 70.1l-15.8-9.9c-7.3-4.8-16.8-12.9-16.8-24.3 0-9.1 4.2-22 23.6-22 19 0 24.4 12.9 26.9 22.4 1 1.2 4.2.6 5-.6 0-8.3-1.8-19.4-3.6-24.1-1.6 0-4.4-.6-6.9-1.2-5.1-1.6-12.3-2.6-18.4-2.6-25.7 0-40.4 15.2-40.4 34.1 0 16.2 11.5 27.5 21.4 34.1l18.8 12.3c14.4 9.3 16.2 19 16.2 27.7 0 11.9-8.1 22.8-24.7 22.8-23 0-31.1-19.4-34.1-29.5-.8-1.2-3.8-.8-4.7.6.4 9.3 3 23.4 5.3 27.7 3.8 2.2 14.2 7.3 30.9 7.3 25.7 0 42.2-14.8 42.2-36.6-.2-19-12.4-30.5-24.9-38.2zm835.9 40.1c-5.1 10.3-10.5 17.2-14.1 19.2-4.4 2.2-10.1 3-25.3 3-17.4 0-21.6-2.2-24-4.6-3.2-3.4-3.8-10.1-3.8-20.6v-27.9c0-5.2.6-5.3 6.5-5.3h11.5c7.7 0 12.5.2 15.2 1 4 1 5.3 4 6.1 7.5l1.8 7.7c1 1.2 4.4 1.2 5.1-.2 0-4.4-.8-11.9-.8-19 0-7.5.8-15.2.8-20-.8-1.4-4.2-1.4-5.1-.2l-1.6 8.1c-1 4.9-2.4 6.1-4.8 6.9-2.4.8-8.5 1.2-16.8 1.2h-11.5c-5.9 0-6.5 0-6.5-5.5v-39.6c0-7.5 0-7.9 5.9-7.9h14.3c8.7 0 15 .2 19.2 1.2 10.3 2.6 12.1 9.5 15 18.8 1 1.2 4.2.8 4.9-.4-.8-8.7-2-23-3.2-26.3-2.4.6-14.1.6-26.7.6h-37.2c-8.1 0-14.8-.2-23.4-.6-1.2.6-1.6 4.2-.4 4.9l3.2.4c11.7 1.4 12.1 4.4 12.1 24.9v71.3c0 20.8-1 23.8-12.3 24.7l-6.5.6c-1.2 1.2-.8 4.4.4 5 11.7-.4 18.4-.6 26.9-.6h17.8c17.6 0 35.2.2 53.1.6 2.6-5.3 7.5-20.6 8.9-27.5-.5-1.8-3.3-2.4-4.7-1.4zm-725.6 11.1c-4.5 6.7-10.5 11.9-22 11.9-21.2 0-31.9-18.4-31.9-33.8 0-21 13.5-31.9 27.3-31.9 8.1 0 15.4 5.1 19.8 10.5.8 1 1.8 1.4 2.8 1.4 2.4 0 4.3-3.8 4.3-7.3 0-3.4-1.4-6.5-3-7.9-5.3-2.4-13.1-3.4-17.6-3.4-32.9 0-47.9 22.8-47.9 44.1 0 12.9 4.6 22.6 11.5 29.3 6.9 6.7 16.6 10.1 27.1 10.1 11.5 0 26.3-5.5 33.1-20.2-.2-1.8-2-3.2-3.5-2.8zm155-60.5c-23.4 0-42.2 17.8-42.2 42.8 0 24.7 17.8 40.8 40.6 40.8 24.7 0 41.8-17.8 41.8-42.6-.1-24.4-18.1-41-40.2-41zm.4 77.6c-17.4 0-25.5-19.4-25.5-37.4 0-21.8 9.7-34.2 22.8-34.2 18.8 0 25.5 21.4 25.5 38.2-.1 15.1-5.4 33.4-22.8 33.4zm-53.5-1.2l-5.3-.6c-7.1-.8-7.5-3-7.5-17.2v-33.1c0-13.9-6.7-25.5-25.5-25.5-10.1 0-19.6 4.7-26.7 10.3-.6-.4-.8-2-.8-3.8V544c0-8.7.4-18.6.6-24.6-.4-.8-1.2-1.2-2-1.2-7.1 3.8-16.4 6.7-21.4 8.3-1 .6-1 3.4 0 4l2 1.2c5.9 3.6 6.1 4.8 6.1 16.4v89.5c0 14.3-.2 16.4-7.5 17.2l-5 .6c-1.4 1-1 4.3.4 4.9 6.3-.4 12.3-.6 19.4-.6 6.9 0 12.7.2 18.6.6 1.4-.6 1.8-4.2.4-4.9l-4.2-.6c-7.1-1-7.5-3-7.5-17.2v-33.3c0-6.9.6-7.9 4.2-10.9s8.7-5.3 15.4-5.3c12.7 0 18.8 8.5 18.8 21.2v28.3c0 14.3-.2 16-7.5 17.2l-4 .6c-1.4 1-1 4.3.4 4.9 5.3-.4 11.3-.6 18.4-.6 6.9 0 12.7.2 19.8.6 1.4-.5 1.8-3.8.4-4.8zm1348.9-3l-4.4-.6c-7.1-1-7.5-3-7.5-17.2v-34.1c0-13.3-6.7-24.5-23.2-24.5-10.1 0-19.4 5-27.7 10.1-1.4 0-2.2-1-2.2-2.2 0-1.8 0-4.8.4-9.3-.4-1-1.4-1.4-2.2-1.4-4 3-15.2 8.1-19.8 9.7-1 .6-1 2.8-.2 3.6l1.8 1.2c5.3 3.6 5.3 4.6 5.3 12.3v34.6c0 14.2-.2 16.2-7.5 17.2l-4.2.6c-1.4 1-1 4.4.4 5 5.5-.4 11.5-.6 18.6-.6 6.9 0 12.7.2 18 .6 1.4-.6 1.8-4 .4-5l-3.6-.6c-7.1-1.2-7.5-3-7.5-17.2v-30.3c0-5.7.4-8.5 3-11.9 2.8-3.8 9.3-6.9 16.8-6.9 13.5 0 18.6 8.3 18.6 19.6v29.5c0 14.2-.2 16-7.5 17.2l-3.8.6c-1.4 1-1 4.4.4 5 5.3-.4 11.3-.6 18.4-.6 6.9 0 12.7.2 18.6.6 1.5-.6 1.9-4 .6-5zm-300.9-13.7c-6.1 7.7-11.7 9.7-18.2 9.7-21.2 0-32.9-17-32.9-37 0-4.9.2-5.3 5.3-5.3h36.6c8.3 0 11.1-.2 11.7-1.4.4-.8.8-2.4.8-5.1 0-11.9-11.1-23.6-28.1-23.6-23.8 0-39.8 20.4-39.8 44.7 0 8.7 2.4 18 8.3 25.7 5.7 7.5 15.8 13.1 28.7 13.1 10.3 0 24.5-4.9 31.1-18.4-.2-1.8-1.6-3-3.5-2.4zm-27-56.8c11.5 0 15.2 6.9 15.2 12.5 0 2.6-.6 3.4-1.2 3.8-1.6 1.2-5.9 2-20.6 2H3512c-1.4 0-1.4-.6-1.4-1 .2-6.6 10.3-17.3 21.9-17.3zm105.4 56.8c-6.1 7.7-11.7 9.7-18.2 9.7-21.2 0-32.9-17-32.9-37 0-4.9.2-5.3 5.3-5.3h36.6c8.3 0 11.1-.2 11.7-1.4.4-.8.8-2.4.8-5.1 0-11.9-11.1-23.6-28.1-23.6-23.8 0-39.8 20.4-39.8 44.7 0 8.7 2.4 18 8.3 25.7 5.7 7.5 15.8 13.1 28.7 13.1 10.3 0 24.5-4.9 31.1-18.4-.2-1.8-1.6-3-3.5-2.4zm-27-56.8c11.5 0 15.2 6.9 15.2 12.5 0 2.6-.6 3.4-1.2 3.8-1.6 1.2-5.9 2-20.6 2h-14.1c-1.4 0-1.4-.6-1.4-1 .4-6.6 10.5-17.3 22.1-17.3zm90.3-5.9c-7.3 0-14.8 6.1-21.8 11.9-.4-.2-.6-.8-.6-1.8v-11.5c0-.8-.6-1.2-1.6-1.4-5 3-15.4 8.1-20 9.7-1 .6-1 2.8-.2 3.6l1.8 1.2c5.3 3.6 5.3 4.6 5.3 12.3v34.6c0 14.2-.2 16-7.5 17.2l-3.8.6c-1.4 1-1 4.4.4 5 5.1-.4 11.1-.6 18.2-.6 6.9 0 12.7.2 22 .6 1.4-.6 1.8-4 .4-5l-7.1-.6c-7.5-.6-7.9-3-7.9-17.2v-26.9c0-6.7.6-12.5 2.6-15.2 1.6-2.2 4-4 7.1-4 2.8 0 5.7 1.2 8.7 3.2 1.4.8 2.4 1.4 4.4 1.4 3.2 0 8.5-2.6 8.5-9.1 0-4.9-3.9-8-8.9-8zM3240 652.5l-4.4-.6c-7.1-1-7.5-3-7.5-17.2v-34.1c0-13.3-6.7-24.5-23.2-24.5-10.1 0-19.4 5-27.7 10.1-1.4 0-2.2-1-2.2-2.2 0-1.8 0-4.8.4-9.3-.4-1-1.4-1.4-2.2-1.4-4 3-15.2 8.1-19.8 9.7-1 .6-1 2.8-.2 3.6l1.8 1.2c5.3 3.6 5.3 4.6 5.3 12.3v34.6c0 14.2-.2 16.2-7.5 17.2l-4.2.6c-1.4 1-1 4.4.4 5 5.5-.4 11.5-.6 18.6-.6 6.9 0 12.7.2 18 .6 1.4-.6 1.8-4 .4-5l-3.6-.6c-7.1-1.2-7.5-3-7.5-17.2v-30.3c0-5.7.4-8.5 3-11.9 2.8-3.8 9.3-6.9 16.8-6.9 13.5 0 18.6 8.3 18.6 19.6v29.5c0 14.2-.2 16-7.5 17.2l-3.8.6c-1.4 1-1 4.4.4 5 5.3-.4 11.3-.6 18.4-.6 6.9 0 12.7.2 18.6.6 1.6-.6 2-4 .6-5zm516.2 0l-4.2-.6c-7.1-1-7.5-3-7.5-17.2V599c0-8.1.4-17.6.8-24.5-.2-.8-1-1.2-2-1.2-4.6 3-15.8 8.1-20.4 9.7-1 .6-1 2.8-.2 3.6l1.8 1.2c5.3 3.6 5.3 4.6 5.3 12.3v34.6c0 14.2-.2 16.2-7.5 17.2l-4.2.6c-1.4 1-1 4.4.4 5 5.5-.4 11.5-.6 18.6-.6 6.9 0 12.7.2 18.6.6 1.5-.6 1.9-4 .5-5zm-273.1 0l-4.4-.6c-7.1-1-7.5-3-7.5-17.2v-34.1c0-13.3-6.7-24.5-23.2-24.5-10.1 0-19.4 5-27.7 10.1-1.4 0-2.2-1-2.2-2.2 0-1.8 0-4.8.4-9.3-.4-1-1.4-1.4-2.2-1.4-4 3-15.2 8.1-19.8 9.7-1 .6-1 2.8-.2 3.6l1.8 1.2c5.3 3.6 5.3 4.6 5.3 12.3v34.6c0 14.2-.2 16.2-7.5 17.2l-4.2.6c-1.4 1-1 4.4.4 5 5.5-.4 11.5-.6 18.6-.6 6.9 0 12.7.2 18 .6 1.4-.6 1.8-4 .4-5l-3.6-.6c-7.1-1.2-7.5-3-7.5-17.2v-30.3c0-5.7.4-8.5 3-11.9 2.8-3.8 9.3-6.9 16.8-6.9 13.5 0 18.6 8.3 18.6 19.6v29.5c0 14.2-.2 16-7.5 17.2l-3.8.6c-1.4 1-1 4.4.4 5 5.3-.4 11.3-.6 18.4-.6 6.9 0 12.7.2 18.6.6 1.6-.6 1.9-4 .6-5zm-149.9-69.3h-16c-4.4 0-5.7-.4-12.1-3.2-4.6-2-11.5-4-19-4-17.6 0-32.3 12.9-32.3 29.9 0 12.7 8.1 20.4 14.8 23.9 0 1-1 2.6-2 3.8-3.4 3.6-7.1 6.9-10.5 9.1-2.2 1.6-3 2.4-3 3.4 0 6.9 6.7 13.7 14.5 15.6 1.8 1.2.2 3-1.6 4.7-4.6 4.6-10.1 9.7-13.5 13.3-1.4 1.6-2.2 4.2-2.2 7.3 0 9.9 8.5 23 32.9 23 25.7 0 49.3-15.8 49.3-37.4 0-19.8-16.6-21.8-27.7-21.8-8.7 0-16.8.6-23.6.6-9.3 0-13.9-3.8-13.9-8.3 0-5.7 6.3-9.5 8.7-10.9 2.4.2 5.1.6 8.7.6 25.1 0 33.3-17.8 33.3-31.5 0-3.4 0-6.7-.4-10.1h14.3c3.1-.3 3.5-7 1.3-8zm-58.4 82.2c2.8-1.8 10.7-2.2 17-2.2h6.7c14.3 0 22.6 5.1 22.6 17.2 0 11.3-11.7 21.2-29.3 21.2-18 0-26.5-8.9-26.5-19.6 0-7.5 4.8-13.7 9.5-16.6zm13.1-38.2c-9.5 0-18-9.1-18-23.2 0-13.5 7.1-22.2 16.6-22.2 12.1 0 17.6 11.3 17.6 24.7 0 12.1-5.5 20.7-16.2 20.7zm60.6-90.9c0 5.3 4 9.7 10.1 9.7 5.3 0 10.3-3.2 10.3-10.1 0-5.5-3.8-10.1-9.7-10.1-5.8 0-10.7 4-10.7 10.5zm30.4 116.2l-4.2-.6c-7.1-1-7.5-3-7.5-17.2V599c0-8.1.4-17.6.8-24.5-.2-.8-1-1.2-2-1.2-4.6 3-15.8 8.1-20.4 9.7-1 .6-1 2.8-.2 3.6l1.8 1.2c5.3 3.6 5.3 4.6 5.3 12.3v34.6c0 14.2-.2 16.2-7.5 17.2l-4.2.6c-1.4 1-1 4.4.4 5 5.5-.4 11.5-.6 18.6-.6 6.9 0 12.7.2 18.6.6 1.5-.6 1.9-4 .5-5z" fill="#002f87"/></svg>